<svg width="303" height="117" viewBox="0 0 303 117" fill="none" xmlns="http://www.w3.org/2000/svg">
<path d="M282.43 24.5631L262.132 58.937V24.5631H244.852L224.464 58.937V24.5631H207.181V30.5508C211.41 38.9576 213.792 48.4483 213.792 58.5C213.792 68.5517 211.407 78.0424 207.181 86.4492V92.2167H224.461L244.848 57.4745V92.2167H262.128L303 24.5631H282.43Z" fill="white"/>
<path d="M95.8228 30.5508V24.5631H78.5428V58.937L58.1551 24.5631H40.8752V58.937L20.5735 24.5631H0L40.8717 92.2167H58.1517V57.4745L78.5394 92.2167H95.8193V86.4492C91.5897 78.0424 89.2081 68.5517 89.2081 58.5C89.2081 48.4483 91.5931 38.9576 95.8228 30.5508Z" fill="white"/>
<path d="M151.5 0C119.187 0 92.9938 26.1908 92.9938 58.5C92.9938 90.8092 119.187 117 151.5 117C183.813 117 210.006 90.8092 210.006 58.5C210.006 26.1908 183.813 0 151.5 0ZM199.558 83.2627C199.217 85.5889 197.685 87.2269 195.239 87.5745C195.235 87.5745 175.567 89.1506 151.882 89.1781H151.655C151.603 89.1781 151.555 89.1781 151.5 89.1781C151.448 89.1781 151.397 89.1781 151.349 89.1781H151.121C127.437 89.154 107.768 87.5745 107.751 87.5745C105.318 87.2304 103.786 85.5924 103.446 83.2627C103.446 83.2558 101.952 72.5331 101.952 59.1779C101.952 58.9508 101.952 58.7271 101.952 58.5034C101.952 58.2798 101.952 58.0526 101.952 57.8255C101.952 44.4703 103.446 33.7476 103.449 33.7373C103.79 31.4111 105.321 29.7696 107.768 29.4255C107.772 29.4255 127.44 27.8494 151.125 27.8254H151.352C151.404 27.8254 151.455 27.8254 151.503 27.8254C151.555 27.8254 151.607 27.8254 151.658 27.8254H151.885C175.57 27.8494 195.239 29.4255 195.256 29.4289C197.689 29.7731 199.22 31.4111 199.561 33.7407C199.561 33.7476 201.055 44.4703 201.058 57.8255C201.058 58.0526 201.058 58.2763 201.058 58.5C201.058 58.7271 201.058 58.9508 201.062 59.1779C201.055 72.5297 199.558 83.2558 199.558 83.2627Z" fill="white"/>
<path d="M176.044 62.4684C178.231 48.9167 169.017 36.1582 155.464 33.9714C141.911 31.7846 129.151 40.9977 126.964 54.5494C124.777 68.101 133.991 80.8596 147.544 83.0463C161.097 85.2331 173.857 76.02 176.044 62.4684Z" fill="white"/>
</svg>
